<?xml version="1.0" encoding="UTF-8"?>
<svg width="34px" height="34px" viewBox="0 0 34 34" version="1.1" xmlns="http://www.w3.org/2000/svg" xmlns:xlink="http://www.w3.org/1999/xlink">
    <!-- Generator: Sketch 50.2 (55047) - http://www.bohemiancoding.com/sketch -->
    <title>Facebook-black</title>
    <desc>Created with Sketch.</desc>
    <defs></defs>
    <g id="In-progress" stroke="none" stroke-width="1" fill="none" fill-rule="evenodd">
        <g id="Camp-Copy-4" transform="translate(-1117.000000, -9745.000000)" fill="#000000">
            <g id="Group-9" transform="translate(0.000000, 9697.000000)">
                <path d="M1135.1605,82 L1118.87654,82 C1117.83985,82 1117,81.1596273 1117,80.1233436 L1117,49.8765244 C1117,48.8399769 1117.83998,48 1118.87654,48 L1149.12359,48 C1150.15988,48 1151,48.8399769 1151,49.8765244 L1151,80.1233436 C1151,81.1597593 1150.15975,82 1149.12359,82 L1140.45951,82 L1140.45951,68.8333262 L1144.87895,68.8333262 L1145.5407,63.7020398 L1140.45951,63.7020398 L1140.45951,60.4260377 C1140.45951,58.9404118 1140.87205,57.9280069 1143.00241,57.9280069 L1145.7196,57.9268195 L1145.7196,53.3373558 C1145.24967,53.2748226 1143.63672,53.1351123 1141.76018,53.1351123 C1137.84259,53.1351123 1135.1605,55.5264144 1135.1605,59.9178563 L1135.1605,63.7020398 L1130.72971,63.7020398 L1130.72971,68.8333262 L1135.1605,68.8333262 L1135.1605,82 L1135.1605,82 Z" id="Facebook"></path>
            </g>
        </g>
    </g>
</svg>