<?xml version="1.0" encoding="UTF-8"?>
<svg width="422px" height="53px" viewBox="0 0 422 53" version="1.1" xmlns="http://www.w3.org/2000/svg" xmlns:xlink="http://www.w3.org/1999/xlink">
    <!-- Generator: Sketch 50.2 (55047) - http://www.bohemiancoding.com/sketch -->
    <title>Group 10</title>
    <desc>Created with Sketch.</desc>
    <defs></defs>
    <g id="In-progress" stroke="none" stroke-width="1" fill="none" fill-rule="evenodd">
        <g id="Camp" transform="translate(-432.000000, -2576.000000)">
            <g id="Group" transform="translate(432.000000, 2576.000000)">
                <g id="Group-10">
                    <polygon id="Rectangle-4" fill="#FF5B2E" points="0 0 422 0 412.076733 27.5 422 53 0 53 12.0123762 27.5"></polygon>
                    <path d="M39.8225,17.67 L42.9045,17.67 C43.6635,17.67 44.3305,17.785 44.9285,17.992 C45.5035,18.199 46.0095,18.498 46.4005,18.889 C46.7915,19.28 47.1135,19.717 47.3205,20.223 C47.5275,20.729 47.6195,21.281 47.6195,21.879 C47.6195,22.592 47.4355,23.236 47.0905,23.811 C46.7455,24.386 46.2165,24.869 45.5495,25.214 C46.3775,25.605 47.0215,26.18 47.4585,26.916 C47.8955,27.675 48.1255,28.526 48.1255,29.469 C48.1255,30.113 48.0105,30.711 47.8035,31.263 C47.5735,31.815 47.2515,32.298 46.8145,32.689 C46.3775,33.103 45.8485,33.425 45.2275,33.655 C44.6065,33.885 43.8935,34 43.0885,34 L39.8225,34 L39.8225,17.67 Z M42.1225,24.432 L42.9735,24.432 C43.6405,24.432 44.1925,24.225 44.6525,23.811 C45.0895,23.42 45.3195,22.822 45.3195,22.04 C45.3195,21.304 45.0895,20.752 44.6295,20.384 C44.1695,20.016 43.5945,19.832 42.9275,19.832 L42.1225,19.832 L42.1225,24.432 Z M42.1225,31.838 L43.2035,31.838 C43.9395,31.838 44.5605,31.608 45.0665,31.171 C45.5725,30.734 45.8255,30.09 45.8255,29.239 C45.8255,28.365 45.5725,27.721 45.0665,27.284 C44.5605,26.847 43.9395,26.64 43.2035,26.64 L42.1225,26.64 L42.1225,31.838 Z M55.3245,34.276 C54.5425,34.276 53.8065,34.138 53.0935,33.839 C52.3805,33.563 51.7365,33.172 51.1845,32.643 C50.6325,32.137 50.1955,31.516 49.8735,30.803 C49.5285,30.09 49.3675,29.285 49.3675,28.388 C49.3675,27.491 49.5285,26.686 49.8735,25.973 C50.1955,25.26 50.6325,24.639 51.1845,24.11 C51.7365,23.604 52.3805,23.213 53.0935,22.914 C53.8065,22.638 54.5425,22.5 55.3245,22.5 C55.8995,22.5 56.4745,22.569 57.0265,22.73 C57.5555,22.891 58.0615,23.075 58.4985,23.282 L58.4985,25.582 L55.5315,24.547 C54.9565,24.547 54.4505,24.639 53.9905,24.823 C53.5075,25.03 53.1165,25.283 52.7715,25.628 C52.4265,25.973 52.1505,26.364 51.9665,26.847 C51.7595,27.33 51.6675,27.836 51.6675,28.388 C51.6675,28.94 51.7825,29.446 51.9895,29.906 C52.1965,30.389 52.4725,30.78 52.8405,31.102 C53.1855,31.447 53.6225,31.7 54.1055,31.884 C54.5885,32.091 55.1405,32.183 55.7155,32.183 C56.1525,32.183 56.5895,32.091 57.0035,31.907 C57.3945,31.723 57.7625,31.493 58.0845,31.24 L58.9355,33.264 C58.4065,33.586 57.8545,33.839 57.2795,34.023 C56.7045,34.184 56.0375,34.276 55.3245,34.276 Z M65.9045,34.276 C64.9845,34.276 64.1565,34.138 63.4205,33.839 C62.6615,33.54 62.0405,33.149 61.5115,32.62 C60.9825,32.091 60.5685,31.47 60.2925,30.757 C59.9935,30.044 59.8555,29.239 59.8555,28.388 C59.8555,27.537 59.9935,26.732 60.2925,26.019 C60.5685,25.306 60.9595,24.685 61.4655,24.156 C61.9485,23.627 62.5465,23.236 63.2135,22.937 C63.8805,22.638 64.6165,22.5 65.3985,22.5 C66.1115,22.5 66.7555,22.615 67.3765,22.822 C67.9745,23.052 68.5035,23.374 68.9635,23.765 C69.4235,24.156 69.8145,24.639 70.1135,25.191 C70.4125,25.766 70.6195,26.387 70.7345,27.054 L70.7345,29.216 L62.2015,29.216 C62.3165,30.228 62.7075,30.987 63.4205,31.516 C64.1335,32.045 65.0075,32.321 66.0885,32.321 L69.9295,30.872 L69.9295,33.034 C69.4235,33.379 68.8255,33.655 68.1355,33.908 C67.4455,34.161 66.7095,34.276 65.9045,34.276 Z M65.3985,24.501 C64.5475,24.501 63.8115,24.731 63.2365,25.191 C62.6385,25.651 62.2705,26.341 62.1555,27.238 L68.6415,27.238 C68.5265,26.364 68.1815,25.697 67.6065,25.214 C67.0085,24.731 66.2725,24.501 65.3985,24.501 Z M82.0505,34.276 C81.2685,34.276 80.5325,34.138 79.8195,33.839 C79.1065,33.563 78.4625,33.172 77.9105,32.643 C77.3585,32.137 76.9215,31.516 76.5995,30.803 C76.2545,30.09 76.0935,29.285 76.0935,28.388 C76.0935,27.491 76.2545,26.686 76.5995,25.973 C76.9215,25.26 77.3585,24.639 77.9105,24.11 C78.4625,23.604 79.1065,23.213 79.8195,22.914 C80.5325,22.638 81.2685,22.5 82.0505,22.5 C82.6255,22.5 83.2005,22.569 83.7525,22.73 C84.2815,22.891 84.7875,23.075 85.2245,23.282 L85.2245,25.582 L82.2575,24.547 C81.6825,24.547 81.1765,24.639 80.7165,24.823 C80.2335,25.03 79.8425,25.283 79.4975,25.628 C79.1525,25.973 78.8765,26.364 78.6925,26.847 C78.4855,27.33 78.3935,27.836 78.3935,28.388 C78.3935,28.94 78.5085,29.446 78.7155,29.906 C78.9225,30.389 79.1985,30.78 79.5665,31.102 C79.9115,31.447 80.3485,31.7 80.8315,31.884 C81.3145,32.091 81.8665,32.183 82.4415,32.183 C82.8785,32.183 83.3155,32.091 83.7295,31.907 C84.1205,31.723 84.4885,31.493 84.8105,31.24 L85.6615,33.264 C85.1325,33.586 84.5805,33.839 84.0055,34.023 C83.4305,34.184 82.7635,34.276 82.0505,34.276 Z M87.0645,22.776 L89.5025,22.776 L92.1475,30.826 L94.7695,22.776 L97.2075,22.776 L97.2075,34 L95.1605,34 L95.1605,28.917 L95.2525,26.847 L92.9295,34 L91.3195,34 L88.9965,26.824 L89.1115,28.871 L89.1115,34 L87.0645,34 L87.0645,22.776 Z M104.9815,34.276 C104.0615,34.276 103.2335,34.138 102.4975,33.839 C101.7385,33.54 101.1175,33.149 100.5885,32.62 C100.0595,32.091 99.6455,31.47 99.3695,30.757 C99.0705,30.044 98.9325,29.239 98.9325,28.388 C98.9325,27.537 99.0705,26.732 99.3695,26.019 C99.6455,25.306 100.0365,24.685 100.5425,24.156 C101.0255,23.627 101.6235,23.236 102.2905,22.937 C102.9575,22.638 103.6935,22.5 104.4755,22.5 C105.1885,22.5 105.8325,22.615 106.4535,22.822 C107.0515,23.052 107.5805,23.374 108.0405,23.765 C108.5005,24.156 108.8915,24.639 109.1905,25.191 C109.4895,25.766 109.6965,26.387 109.8115,27.054 L109.8115,29.216 L101.2785,29.216 C101.3935,30.228 101.7845,30.987 102.4975,31.516 C103.2105,32.045 104.0845,32.321 105.1655,32.321 L109.0065,30.872 L109.0065,33.034 C108.5005,33.379 107.9025,33.655 107.2125,33.908 C106.5225,34.161 105.7865,34.276 104.9815,34.276 Z M104.4755,24.501 C103.6245,24.501 102.8885,24.731 102.3135,25.191 C101.7155,25.651 101.3475,26.341 101.2325,27.238 L107.7185,27.238 C107.6035,26.364 107.2585,25.697 106.6835,25.214 C106.0855,24.731 105.3495,24.501 104.4755,24.501 Z M111.4445,22.776 L113.6985,22.776 L113.6985,27.261 L117.2405,27.261 L117.2405,22.776 L119.4945,22.776 L119.4945,34 L117.2405,34 L117.2405,29.354 L113.6985,29.354 L113.6985,34 L111.4445,34 L111.4445,22.776 Z M121.7025,22.776 L123.9565,22.776 L123.9565,26.433 L125.7965,26.433 C126.4175,26.433 126.9695,26.548 127.4525,26.755 C127.9355,26.962 128.3265,27.238 128.6485,27.583 C128.9475,27.928 129.2005,28.342 129.3615,28.779 C129.5225,29.239 129.5915,29.699 129.5915,30.182 C129.5915,30.711 129.5225,31.194 129.3615,31.654 C129.2005,32.114 128.9475,32.505 128.6485,32.85 C128.3265,33.195 127.9355,33.471 127.4525,33.678 C126.9695,33.885 126.4175,34 125.7965,34 L121.7025,34 L121.7025,22.776 Z M130.6955,22.776 L132.9495,22.776 L132.9495,34 L130.6955,34 L130.6955,22.776 Z M123.9565,31.907 L125.4515,31.907 C126.0495,31.907 126.5095,31.769 126.8315,31.516 C127.1305,31.263 127.2915,30.826 127.2915,30.182 C127.2915,29.078 126.6705,28.526 125.4515,28.526 L123.9565,28.526 L123.9565,31.907 Z M139.3895,22.776 L141.8275,22.776 L144.4725,30.826 L147.0945,22.776 L149.5325,22.776 L149.5325,34 L147.4855,34 L147.4855,28.917 L147.5775,26.847 L145.2545,34 L143.6445,34 L141.3215,26.824 L141.4365,28.871 L141.4365,34 L139.3895,34 L139.3895,22.776 Z M157.1915,34.276 C156.4095,34.276 155.6505,34.138 154.9375,33.839 C154.2245,33.563 153.5805,33.172 153.0515,32.643 C152.4995,32.137 152.0625,31.516 151.7405,30.803 C151.3955,30.09 151.2345,29.285 151.2345,28.388 C151.2345,27.491 151.3955,26.686 151.7405,25.973 C152.0625,25.26 152.4995,24.639 153.0515,24.11 C153.5805,23.604 154.2245,23.213 154.9375,22.914 C155.6505,22.638 156.4095,22.5 157.1915,22.5 C157.9735,22.5 158.7325,22.638 159.4455,22.914 C160.1585,23.213 160.8025,23.604 161.3545,24.11 C161.8835,24.639 162.3205,25.26 162.6655,25.973 C162.9875,26.686 163.1485,27.491 163.1485,28.388 C163.1485,29.285 162.9875,30.09 162.6655,30.803 C162.3205,31.516 161.8835,32.137 161.3545,32.643 C160.8025,33.172 160.1585,33.563 159.4455,33.839 C158.7325,34.138 157.9735,34.276 157.1915,34.276 Z M157.1915,32.183 C157.6975,32.183 158.1805,32.091 158.6175,31.884 C159.0545,31.7 159.4455,31.447 159.7905,31.102 C160.1125,30.78 160.3655,30.389 160.5725,29.906 C160.7565,29.446 160.8485,28.94 160.8485,28.388 C160.8485,27.836 160.7565,27.33 160.5725,26.847 C160.3655,26.387 160.1125,25.996 159.7905,25.651 C159.4455,25.329 159.0545,25.076 158.6175,24.869 C158.1805,24.685 157.6975,24.593 157.1915,24.593 C156.6855,24.593 156.2025,24.685 155.7655,24.869 C155.3285,25.076 154.9375,25.329 154.6155,25.651 C154.2705,25.996 154.0175,26.387 153.8335,26.847 C153.6265,27.33 153.5345,27.836 153.5345,28.388 C153.5345,28.94 153.6265,29.446 153.8335,29.906 C154.0175,30.389 154.2705,30.78 154.6155,31.102 C154.9375,31.447 155.3285,31.7 155.7655,31.884 C156.2025,32.091 156.6855,32.183 157.1915,32.183 Z M169.0135,28.411 L168.9445,28.411 L166.3915,34 L163.8615,34 L166.8055,28.066 L164.0225,22.776 L166.6215,22.776 L169.0135,27.836 L169.0135,22.776 L171.2675,22.776 L171.2675,27.836 L173.6595,22.776 L176.2585,22.776 L173.4525,28.066 L176.4195,34 L173.8895,34 L171.3365,28.411 L171.2675,28.411 L171.2675,34 L169.0135,34 L169.0135,28.411 Z M177.6385,22.776 L179.8925,22.776 L179.8925,27.261 L183.4345,27.261 L183.4345,22.776 L185.6885,22.776 L185.6885,34 L183.4345,34 L183.4345,29.354 L179.8925,29.354 L179.8925,34 L177.6385,34 L177.6385,22.776 Z M193.3475,34.276 C192.5655,34.276 191.8065,34.138 191.0935,33.839 C190.3805,33.563 189.7365,33.172 189.2075,32.643 C188.6555,32.137 188.2185,31.516 187.8965,30.803 C187.5515,30.09 187.3905,29.285 187.3905,28.388 C187.3905,27.491 187.5515,26.686 187.8965,25.973 C188.2185,25.26 188.6555,24.639 189.2075,24.11 C189.7365,23.604 190.3805,23.213 191.0935,22.914 C191.8065,22.638 192.5655,22.5 193.3475,22.5 C194.1295,22.5 194.8885,22.638 195.6015,22.914 C196.3145,23.213 196.9585,23.604 197.5105,24.11 C198.0395,24.639 198.4765,25.26 198.8215,25.973 C199.1435,26.686 199.3045,27.491 199.3045,28.388 C199.3045,29.285 199.1435,30.09 198.8215,30.803 C198.4765,31.516 198.0395,32.137 197.5105,32.643 C196.9585,33.172 196.3145,33.563 195.6015,33.839 C194.8885,34.138 194.1295,34.276 193.3475,34.276 Z M193.3475,32.183 C193.8535,32.183 194.3365,32.091 194.7735,31.884 C195.2105,31.7 195.6015,31.447 195.9465,31.102 C196.2685,30.78 196.5215,30.389 196.7285,29.906 C196.9125,29.446 197.0045,28.94 197.0045,28.388 C197.0045,27.836 196.9125,27.33 196.7285,26.847 C196.5215,26.387 196.2685,25.996 195.9465,25.651 C195.6015,25.329 195.2105,25.076 194.7735,24.869 C194.3365,24.685 193.8535,24.593 193.3475,24.593 C192.8415,24.593 192.3585,24.685 191.9215,24.869 C191.4845,25.076 191.0935,25.329 190.7715,25.651 C190.4265,25.996 190.1735,26.387 189.9895,26.847 C189.7825,27.33 189.6905,27.836 189.6905,28.388 C189.6905,28.94 189.7825,29.446 189.9895,29.906 C190.1735,30.389 190.4265,30.78 190.7715,31.102 C191.0935,31.447 191.4845,31.7 191.9215,31.884 C192.3585,32.091 192.8415,32.183 193.3475,32.183 Z M205.2385,22.776 L207.4925,22.776 L207.4925,27.836 L210.2295,22.776 L212.8975,22.776 L209.7235,28.066 L213.0585,34 L210.4595,34 L207.5615,28.411 L207.4925,28.411 L207.4925,34 L205.2385,34 L205.2385,22.776 Z M214.3925,36.507 L216.6005,36.645 L216.6005,33.931 L213.2655,22.776 L215.6115,22.776 L217.7275,31.171 L219.8435,22.776 L222.1895,22.776 L218.8545,33.931 L218.8545,37.174 C218.8545,38.117 218.3715,38.6 217.4285,38.6 L214.3925,38.6 L214.3925,36.507 Z M223.4775,22.776 L231.2745,22.776 L231.2745,34 L229.0205,34 L229.0205,24.869 L225.7315,24.869 L225.7315,34 L223.4775,34 L223.4775,22.776 Z M233.4825,22.776 L235.6675,22.776 L235.6675,28.273 L235.6215,30.021 L239.6695,22.776 L241.3715,22.776 L241.3715,34 L239.1865,34 L239.1865,28.526 L239.2095,26.732 L235.1845,34 L233.4825,34 L233.4825,22.776 Z M245.5115,24.869 L242.7745,24.869 L242.7745,22.776 L250.5255,22.776 L250.5255,24.869 L247.7655,24.869 L247.7655,34 L245.5115,34 L245.5115,24.869 Z M251.9285,22.776 L254.1825,22.776 L254.1825,26.433 L256.0225,26.433 C256.6435,26.433 257.1955,26.548 257.6785,26.755 C258.1615,26.962 258.5525,27.238 258.8745,27.583 C259.1735,27.928 259.4265,28.342 259.5875,28.779 C259.7485,29.239 259.8175,29.699 259.8175,30.182 C259.8175,30.711 259.7485,31.194 259.5875,31.654 C259.4265,32.114 259.1735,32.505 258.8745,32.85 C258.5525,33.195 258.1615,33.471 257.6785,33.678 C257.1955,33.885 256.6435,34 256.0225,34 L251.9285,34 L251.9285,22.776 Z M254.1825,31.907 L255.6775,31.907 C256.2755,31.907 256.7355,31.769 257.0575,31.516 C257.3565,31.263 257.5175,30.826 257.5175,30.182 C257.5175,29.078 256.8965,28.526 255.6775,28.526 L254.1825,28.526 L254.1825,31.907 Z M274.1005,30.849 C274.1005,31.332 274.0315,31.746 273.8705,32.137 C273.7095,32.528 273.5025,32.85 273.2265,33.126 C272.9505,33.402 272.6285,33.609 272.2375,33.77 C271.8465,33.931 271.4325,34 270.9725,34 L265.5675,34 L265.5675,22.776 L270.6735,22.776 C271.1105,22.776 271.5245,22.845 271.9155,22.983 C272.2835,23.144 272.6055,23.328 272.8815,23.581 C273.1345,23.834 273.3415,24.156 273.5025,24.524 C273.6635,24.892 273.7325,25.283 273.7325,25.72 C273.7325,26.203 273.6175,26.663 273.3875,27.054 C273.1345,27.468 272.7895,27.813 272.3525,28.089 C272.9275,28.388 273.3645,28.779 273.6635,29.285 C273.9625,29.791 274.1005,30.32 274.1005,30.849 Z M267.7985,27.376 L270.1215,27.376 C270.4665,27.376 270.7885,27.261 271.0415,27.031 C271.2945,26.801 271.4325,26.479 271.4325,26.065 C271.4325,25.651 271.2945,25.329 271.0415,25.099 C270.7885,24.869 270.4665,24.754 270.1215,24.754 L267.7985,24.754 L267.7985,27.376 Z M267.7985,32.022 L270.3745,32.022 C270.7655,32.022 271.1105,31.907 271.3865,31.677 C271.6395,31.447 271.7775,31.102 271.7775,30.619 C271.7775,30.159 271.6395,29.814 271.3865,29.584 C271.1105,29.354 270.7655,29.239 270.3745,29.239 L267.7985,29.239 L267.7985,32.022 Z M280.0805,22.776 L282.1965,22.776 L282.1965,24.547 C282.6795,23.903 283.3005,23.397 284.0135,23.029 C284.7265,22.684 285.4625,22.5 286.2675,22.5 C287.0265,22.5 287.7395,22.638 288.4295,22.914 C289.1195,23.213 289.7405,23.604 290.2695,24.11 C290.7985,24.639 291.2125,25.26 291.5345,25.973 C291.8335,26.686 291.9945,27.491 291.9945,28.388 C291.9945,29.285 291.8335,30.09 291.5345,30.803 C291.2125,31.516 290.7985,32.137 290.2695,32.643 C289.7405,33.172 289.1195,33.563 288.4295,33.839 C287.7395,34.138 287.0265,34.276 286.2675,34.276 C285.5085,34.276 284.7955,34.115 284.1285,33.793 C283.4615,33.494 282.8635,33.034 282.3805,32.459 L282.3805,38.6 L280.0805,38.6 L280.0805,22.776 Z M286.0375,32.183 C286.5435,32.183 287.0265,32.091 287.4635,31.884 C287.9005,31.7 288.2915,31.447 288.6365,31.102 C288.9585,30.78 289.2115,30.389 289.4185,29.906 C289.6025,29.446 289.6945,28.94 289.6945,28.388 C289.6945,27.836 289.6025,27.33 289.4185,26.847 C289.2115,26.387 288.9585,25.996 288.6365,25.651 C288.2915,25.329 287.9005,25.076 287.4635,24.869 C287.0265,24.685 286.5435,24.593 286.0375,24.593 C285.5315,24.593 285.0715,24.685 284.6345,24.869 C284.1975,25.053 283.8065,25.306 283.4845,25.628 C283.1625,25.95 282.9095,26.341 282.7025,26.778 C282.4955,27.215 282.4035,27.698 282.3805,28.227 L282.3805,28.388 C282.3805,28.94 282.4725,29.446 282.6795,29.906 C282.8635,30.389 283.1165,30.78 283.4615,31.102 C283.7835,31.447 284.1745,31.7 284.6115,31.884 C285.0485,32.091 285.5315,32.183 286.0375,32.183 Z M296.8245,34.276 C296.3415,34.276 295.8585,34.184 295.4215,34.023 C294.9845,33.839 294.5935,33.586 294.2485,33.264 C293.9035,32.942 293.6275,32.551 293.4205,32.068 C293.2135,31.608 293.0985,31.079 293.0985,30.504 C293.0985,29.906 293.2135,29.377 293.4205,28.894 C293.6275,28.434 293.9035,28.043 294.2485,27.721 C294.5935,27.399 294.9845,27.146 295.4215,26.985 C295.8585,26.824 296.3415,26.732 296.8245,26.732 C297.2155,26.732 297.6065,26.801 297.9745,26.916 C298.3195,27.031 298.6415,27.238 298.9405,27.514 L298.9405,26.111 C298.9405,25.628 298.8025,25.214 298.5035,24.915 C298.2045,24.616 297.7445,24.478 297.1695,24.478 L293.8575,25.513 L293.8575,23.512 C294.3635,23.213 294.9155,22.96 295.4905,22.776 C296.0655,22.592 296.6865,22.5 297.3535,22.5 C298.5495,22.5 299.4925,22.845 300.2055,23.512 C300.8955,24.179 301.2405,25.076 301.2405,26.203 L301.2405,31.47 L301.9305,34 L299.5385,34 L299.3085,33.08 C299.0095,33.517 298.6415,33.816 298.2045,34 C297.7675,34.184 297.3075,34.276 296.8245,34.276 Z M297.1465,32.275 C297.6295,32.275 298.0435,32.114 298.3885,31.815 C298.7335,31.516 298.9175,31.102 298.9405,30.596 L298.9405,30.435 C298.9175,29.929 298.7335,29.515 298.3885,29.193 C298.0435,28.894 297.6295,28.733 297.1465,28.733 C296.6405,28.733 296.2265,28.894 295.8815,29.216 C295.5365,29.538 295.3525,29.975 295.3525,30.504 C295.3525,31.033 295.5365,31.47 295.8815,31.792 C296.2265,32.114 296.6405,32.275 297.1465,32.275 Z M308.9915,34.276 C308.2095,34.276 307.4735,34.138 306.7605,33.839 C306.0475,33.563 305.4035,33.172 304.8515,32.643 C304.2995,32.137 303.8625,31.516 303.5405,30.803 C303.1955,30.09 303.0345,29.285 303.0345,28.388 C303.0345,27.491 303.1955,26.686 303.5405,25.973 C303.8625,25.26 304.2995,24.639 304.8515,24.11 C305.4035,23.604 306.0475,23.213 306.7605,22.914 C307.4735,22.638 308.2095,22.5 308.9915,22.5 C309.5665,22.5 310.1415,22.569 310.6935,22.73 C311.2225,22.891 311.7285,23.075 312.1655,23.282 L312.1655,25.582 L309.1985,24.547 C308.6235,24.547 308.1175,24.639 307.6575,24.823 C307.1745,25.03 306.7835,25.283 306.4385,25.628 C306.0935,25.973 305.8175,26.364 305.6335,26.847 C305.4265,27.33 305.3345,27.836 305.3345,28.388 C305.3345,28.94 305.4495,29.446 305.6565,29.906 C305.8635,30.389 306.1395,30.78 306.5075,31.102 C306.8525,31.447 307.2895,31.7 307.7725,31.884 C308.2555,32.091 308.8075,32.183 309.3825,32.183 C309.8195,32.183 310.2565,32.091 310.6705,31.907 C311.0615,31.723 311.4295,31.493 311.7515,31.24 L312.6025,33.264 C312.0735,33.586 311.5215,33.839 310.9465,34.023 C310.3715,34.184 309.7045,34.276 308.9915,34.276 Z M319.4565,34.276 C318.6745,34.276 317.9385,34.138 317.2255,33.839 C316.5125,33.563 315.8685,33.172 315.3165,32.643 C314.7645,32.137 314.3275,31.516 314.0055,30.803 C313.6605,30.09 313.4995,29.285 313.4995,28.388 C313.4995,27.491 313.6605,26.686 314.0055,25.973 C314.3275,25.26 314.7645,24.639 315.3165,24.11 C315.8685,23.604 316.5125,23.213 317.2255,22.914 C317.9385,22.638 318.6745,22.5 319.4565,22.5 C320.0315,22.5 320.6065,22.569 321.1585,22.73 C321.6875,22.891 322.1935,23.075 322.6305,23.282 L322.6305,25.582 L319.6635,24.547 C319.0885,24.547 318.5825,24.639 318.1225,24.823 C317.6395,25.03 317.2485,25.283 316.9035,25.628 C316.5585,25.973 316.2825,26.364 316.0985,26.847 C315.8915,27.33 315.7995,27.836 315.7995,28.388 C315.7995,28.94 315.9145,29.446 316.1215,29.906 C316.3285,30.389 316.6045,30.78 316.9725,31.102 C317.3175,31.447 317.7545,31.7 318.2375,31.884 C318.7205,32.091 319.2725,32.183 319.8475,32.183 C320.2845,32.183 320.7215,32.091 321.1355,31.907 C321.5265,31.723 321.8945,31.493 322.2165,31.24 L323.0675,33.264 C322.5385,33.586 321.9865,33.839 321.4115,34.023 C320.8365,34.184 320.1695,34.276 319.4565,34.276 Z M324.4705,22.776 L326.5865,22.776 L326.5865,24.547 C327.0695,23.903 327.6905,23.397 328.4035,23.029 C329.1165,22.684 329.8525,22.5 330.6575,22.5 C331.4165,22.5 332.1295,22.638 332.8195,22.914 C333.5095,23.213 334.1305,23.604 334.6595,24.11 C335.1885,24.639 335.6025,25.26 335.9245,25.973 C336.2235,26.686 336.3845,27.491 336.3845,28.388 C336.3845,29.285 336.2235,30.09 335.9245,30.803 C335.6025,31.516 335.1885,32.137 334.6595,32.643 C334.1305,33.172 333.5095,33.563 332.8195,33.839 C332.1295,34.138 331.4165,34.276 330.6575,34.276 C329.8985,34.276 329.1855,34.115 328.5185,33.793 C327.8515,33.494 327.2535,33.034 326.7705,32.459 L326.7705,38.6 L324.4705,38.6 L324.4705,22.776 Z M330.4275,32.183 C330.9335,32.183 331.4165,32.091 331.8535,31.884 C332.2905,31.7 332.6815,31.447 333.0265,31.102 C333.3485,30.78 333.6015,30.389 333.8085,29.906 C333.9925,29.446 334.0845,28.94 334.0845,28.388 C334.0845,27.836 333.9925,27.33 333.8085,26.847 C333.6015,26.387 333.3485,25.996 333.0265,25.651 C332.6815,25.329 332.2905,25.076 331.8535,24.869 C331.4165,24.685 330.9335,24.593 330.4275,24.593 C329.9215,24.593 329.4615,24.685 329.0245,24.869 C328.5875,25.053 328.1965,25.306 327.8745,25.628 C327.5525,25.95 327.2995,26.341 327.0925,26.778 C326.8855,27.215 326.7935,27.698 326.7705,28.227 L326.7705,28.388 C326.7705,28.94 326.8625,29.446 327.0695,29.906 C327.2535,30.389 327.5065,30.78 327.8515,31.102 C328.1735,31.447 328.5645,31.7 329.0015,31.884 C329.4385,32.091 329.9215,32.183 330.4275,32.183 Z M343.5605,34.276 C342.7785,34.276 342.0195,34.138 341.3065,33.839 C340.5935,33.563 339.9495,33.172 339.4205,32.643 C338.8685,32.137 338.4315,31.516 338.1095,30.803 C337.7645,30.09 337.6035,29.285 337.6035,28.388 C337.6035,27.491 337.7645,26.686 338.1095,25.973 C338.4315,25.26 338.8685,24.639 339.4205,24.11 C339.9495,23.604 340.5935,23.213 341.3065,22.914 C342.0195,22.638 342.7785,22.5 343.5605,22.5 C344.3425,22.5 345.1015,22.638 345.8145,22.914 C346.5275,23.213 347.1715,23.604 347.7235,24.11 C348.2525,24.639 348.6895,25.26 349.0345,25.973 C349.3565,26.686 349.5175,27.491 349.5175,28.388 C349.5175,29.285 349.3565,30.09 349.0345,30.803 C348.6895,31.516 348.2525,32.137 347.7235,32.643 C347.1715,33.172 346.5275,33.563 345.8145,33.839 C345.1015,34.138 344.3425,34.276 343.5605,34.276 Z M343.5605,32.183 C344.0665,32.183 344.5495,32.091 344.9865,31.884 C345.4235,31.7 345.8145,31.447 346.1595,31.102 C346.4815,30.78 346.7345,30.389 346.9415,29.906 C347.1255,29.446 347.2175,28.94 347.2175,28.388 C347.2175,27.836 347.1255,27.33 346.9415,26.847 C346.7345,26.387 346.4815,25.996 346.1595,25.651 C345.8145,25.329 345.4235,25.076 344.9865,24.869 C344.5495,24.685 344.0665,24.593 343.5605,24.593 C343.0545,24.593 342.5715,24.685 342.1345,24.869 C341.6975,25.076 341.3065,25.329 340.9845,25.651 C340.6395,25.996 340.3865,26.387 340.2025,26.847 C339.9955,27.33 339.9035,27.836 339.9035,28.388 C339.9035,28.94 339.9955,29.446 340.2025,29.906 C340.3865,30.389 340.6395,30.78 340.9845,31.102 C341.3065,31.447 341.6975,31.7 342.1345,31.884 C342.5715,32.091 343.0545,32.183 343.5605,32.183 Z M356.4635,30.228 L354.7155,30.228 C353.5195,30.228 352.5535,29.883 351.8405,29.216 C351.1275,28.549 350.7595,27.606 350.7595,26.387 L350.7595,22.776 L353.0135,22.776 L353.0135,25.95 C353.0135,26.801 353.1975,27.376 353.5425,27.675 C353.8875,27.974 354.4625,28.135 355.2905,28.135 L356.4635,28.135 L356.4635,22.776 L358.7175,22.776 L358.7175,34 L356.4635,34 L356.4635,30.228 Z M360.9255,22.776 L363.1795,22.776 L363.1795,27.836 L365.9165,22.776 L368.5845,22.776 L365.4105,28.066 L368.7455,34 L366.1465,34 L363.2485,28.411 L363.1795,28.411 L363.1795,34 L360.9255,34 L360.9255,22.776 Z M370.0795,36.507 L372.2875,36.645 L372.2875,33.931 L368.9525,22.776 L371.2985,22.776 L373.4145,31.171 L375.5305,22.776 L377.8765,22.776 L374.5415,33.931 L374.5415,37.174 C374.5415,38.117 374.0585,38.6 373.1155,38.6 L370.0795,38.6 L370.0795,36.507 Z M379.3255,17.67 L382.2925,17.67 L381.8095,29.63 L379.8315,29.63 L379.3255,17.67 Z M379.3945,31.24 L382.2695,31.24 L382.2695,34 L379.3945,34 L379.3945,31.24 Z" id="Все-смены-можно-купи" fill="#FFFFFF"></path>
                </g>
            </g>
        </g>
    </g>
</svg>