<?xml version="1.0" encoding="UTF-8"?>
<svg width="48px" height="34px" viewBox="0 0 48 34" version="1.1" xmlns="http://www.w3.org/2000/svg" xmlns:xlink="http://www.w3.org/1999/xlink">
    <!-- Generator: Sketch 50.2 (55047) - http://www.bohemiancoding.com/sketch -->
    <title>Youtube-black</title>
    <desc>Created with Sketch.</desc>
    <defs></defs>
    <g id="In-progress" stroke="none" stroke-width="1" fill="none" fill-rule="evenodd">
        <g id="Camp-Copy-4" transform="translate(-1034.000000, -9745.000000)" fill="#000000">
            <g id="Group-9" transform="translate(0.000000, 9697.000000)">
                <path d="M1053.044,71.269916 L1053.0425,57.6877416 L1066.0115,64.5022437 L1053.044,71.269916 Z M1081.52,55.3341627 C1081.52,55.3341627 1081.0505,52.003199 1079.612,50.5363665 C1077.7865,48.610299 1075.7405,48.6012352 1074.803,48.4894477 C1068.086,48 1058.0105,48 1058.0105,48 L1057.9895,48 C1057.9895,48 1047.914,48 1041.197,48.4894477 C1040.258,48.6012352 1038.2135,48.610299 1036.3865,50.5363665 C1034.948,52.003199 1034.48,55.3341627 1034.48,55.3341627 C1034.48,55.3341627 1034,59.2467232 1034,63.1577731 L1034,66.8256098 C1034,70.7381703 1034.48,74.6492202 1034.48,74.6492202 C1034.48,74.6492202 1034.948,77.9801839 1036.3865,79.4470165 C1038.2135,81.3730839 1040.612,81.3126583 1041.68,81.5135736 C1045.52,81.8851913 1058,82 1058,82 C1058,82 1068.086,81.9848936 1074.803,81.4954459 C1075.7405,81.3821478 1077.7865,81.3730839 1079.612,79.4470165 C1081.0505,77.9801839 1081.52,74.6492202 1081.52,74.6492202 C1081.52,74.6492202 1082,70.7381703 1082,66.8256098 L1082,63.1577731 C1082,59.2467232 1081.52,55.3341627 1081.52,55.3341627 L1081.52,55.3341627 Z" id="Youtube"></path>
            </g>
        </g>
    </g>
</svg>